# xmcd
#
# Track frame offsets: 
#        150
#        16436
#        29468
#        52649
#        68063
#        81264
#        94643
#        113650
#        131125
#        138916
#
# Disc length: 2109 seconds
#
# Revision: 0
# Processed by: cddbd v1.5.2PL0 Copyright (c) Steve Scherf et al.
# Submitted via: ExactAudioCopy v0.95b2
#
DISCID=7a083b0a
DTITLE=Johan Botha - Winter Sonder Koud
DYEAR=2007
DGENRE=Big Band
TTITLE0=And I Love her
TTITLE1=Jy maak my Kniee lam
TTITLE2=Minnie the Moocher
TTITLE3=Gin
TTITLE4=Fly me to the moon
TTITLE5=Ek is op pad
TTITLE6=Winter sonder Koud
TTITLE7=And I love you so
TTITLE8=My Baby
TTITLE9=Diens
EXTD=
EXTT0=
EXTT1=
EXTT2=
EXTT3=
EXTT4=
EXTT5=
EXTT6=
EXTT7=
EXTT8=
EXTT9=
PLAYORDER=
